<svg width="185" height="45" viewBox="0 0 185 45" fill="none" xmlns="http://www.w3.org/2000/svg">
<path d="M24.8776 12.1717L25.2269 13.2467C25.9632 15.5128 28.075 17.0471 30.4577 17.0471H31.588C34.0098 17.0471 35.0168 20.1462 33.0575 21.5697L32.1431 22.234C30.2154 23.6346 29.4088 26.1171 30.1451 28.3832L30.4944 29.4582C31.2427 31.7615 28.6065 33.6768 26.6472 32.2533L25.7328 31.5889C23.8051 30.1884 21.1949 30.1884 19.2672 31.5889L18.3527 32.2533C16.3935 33.6768 13.7573 31.7615 14.5056 29.4582L14.8549 28.3832C15.5912 26.1171 14.7846 23.6346 12.8569 22.234L11.9425 21.5697C9.98322 20.1462 10.9902 17.0471 13.412 17.0471H14.5423C16.925 17.0471 19.0368 15.5128 19.7731 13.2467L20.1224 12.1717C20.8707 9.86845 24.1293 9.86845 24.8776 12.1717Z" fill="white" stroke="white" stroke-width="3"/>
<path d="M58.9758 12.1717L59.3251 13.2467C60.0614 15.5128 62.1731 17.0471 64.5559 17.0471H65.6862C68.108 17.0471 69.1149 20.1462 67.1556 21.5697L66.2412 22.234C64.3135 23.6346 63.5069 26.1171 64.2432 28.3832L64.5925 29.4582C65.3409 31.7615 62.7047 33.6768 60.7454 32.2533L59.831 31.5889C57.9033 30.1884 55.293 30.1884 53.3653 31.5889L52.4509 32.2533C50.4916 33.6768 47.8554 31.7615 48.6038 29.4582L48.9531 28.3832C49.6894 26.1171 48.8828 23.6346 46.9551 22.234L46.0406 21.5697C44.0814 20.1462 45.0883 17.0471 47.5101 17.0471H48.6404C51.0232 17.0471 53.1349 15.5128 53.8712 13.2467L54.2205 12.1717C54.9689 9.86845 58.2274 9.86845 58.9758 12.1717Z" fill="white" stroke="white" stroke-width="3"/>
<path d="M93.9609 12.1717L94.3102 13.2467C95.0465 15.5128 97.1582 17.0471 99.541 17.0471H100.671C103.093 17.0471 104.1 20.1462 102.141 21.5697L101.226 22.234C99.2986 23.6346 98.492 26.1171 99.2283 28.3832L99.5776 29.4582C100.326 31.7615 97.6898 33.6768 95.7305 32.2533L94.8161 31.5889C92.8884 30.1884 90.2781 30.1884 88.3504 31.5889L87.436 32.2533C85.4767 33.6768 82.8405 31.7615 83.5889 29.4582L83.9382 28.3832C84.6745 26.1171 83.8679 23.6346 81.9402 22.234L81.0258 21.5697C79.0665 20.1462 80.0734 17.0471 82.4952 17.0471H83.6255C86.0083 17.0471 88.12 15.5128 88.8563 13.2467L89.2056 12.1717C89.954 9.86845 93.2125 9.86845 93.9609 12.1717Z" fill="white" stroke="white" stroke-width="3"/>
<path d="M129.003 12.1717L129.352 13.2467C130.088 15.5128 132.2 17.0471 134.583 17.0471H135.713C138.135 17.0471 139.142 20.1462 137.182 21.5697L136.268 22.234C134.34 23.6346 133.534 26.1171 134.27 28.3832L134.619 29.4582C135.368 31.7615 132.732 33.6768 130.772 32.2533L129.858 31.5889C127.93 30.1884 125.32 30.1884 123.392 31.5889L122.478 32.2533C120.518 33.6768 117.882 31.7615 118.631 29.4582L118.98 28.3832C119.716 26.1171 118.91 23.6346 116.982 22.234L116.067 21.5697C114.108 20.1462 115.115 17.0471 117.537 17.0471H118.667C121.05 17.0471 123.162 15.5128 123.898 13.2467L124.247 12.1717C124.996 9.86845 128.254 9.86845 129.003 12.1717Z" fill="white" stroke="white" stroke-width="3"/>
<path d="M157.919 11.7082C159.116 8.02296 164.33 8.02296 165.527 11.7082L165.877 12.7832C166.412 14.4313 167.948 15.5471 169.681 15.5471H170.811C174.686 15.5471 176.297 20.5056 173.162 22.7832L172.248 23.4476C170.846 24.4661 170.259 26.2716 170.795 27.9197L171.144 28.9947C172.341 32.6799 168.124 35.7444 164.989 33.4668L164.074 32.8024C162.672 31.7839 160.774 31.7839 159.372 32.8024L158.458 33.4668C155.323 35.7444 151.105 32.6799 152.302 28.9947L152.651 27.9197C153.187 26.2716 152.6 24.4661 151.198 23.4476L150.284 22.7832C147.149 20.5056 148.76 15.5471 152.635 15.5471H153.765C155.498 15.5471 157.034 14.4313 157.57 12.7832L157.919 11.7082Z" fill="black" fill-opacity="0.25"/>
<path d="M164.101 12.1717L164.45 13.2467C165.186 15.5128 167.298 17.0471 169.681 17.0471H170.811C173.233 17.0471 174.24 20.1462 172.281 21.5697L171.366 22.234C169.439 23.6346 168.632 26.1171 169.368 28.3832L169.717 29.4582C170.466 31.7615 167.83 33.6768 165.87 32.2533L164.956 31.5889C163.028 30.1884 160.418 30.1884 158.49 31.5889L157.576 32.2533C155.617 33.6768 152.98 31.7615 153.729 29.4582L154.078 28.3832C154.814 26.1171 154.008 23.6346 152.08 22.234L151.166 21.5697C149.206 20.1462 150.213 17.0471 152.635 17.0471H153.765C156.148 17.0471 158.26 15.5128 158.996 13.2467L159.346 12.1717C160.094 9.86845 163.352 9.86845 164.101 12.1717Z" stroke="black" stroke-opacity="0.2" stroke-width="3"/>
</svg>
