<svg width="26" height="34" viewBox="0 0 26 34" fill="none" xmlns="http://www.w3.org/2000/svg">
<path d="M4.68748 33.8333C3.49998 33.8333 2.47741 33.4309 1.61977 32.626C0.762132 31.8212 0.333313 30.825 0.333313 29.6375V7.54999C0.333313 6.54721 0.643382 5.64999 1.26352 4.85833C1.88366 4.06666 2.69512 3.56527 3.6979 3.35416L15.5729 1.01874C16.5493 0.807631 17.4201 1.01874 18.1854 1.65208C18.9507 2.28541 19.3333 3.10346 19.3333 4.10624V22.9875C19.3333 23.7528 19.0958 24.4323 18.6208 25.026C18.1458 25.6198 17.5389 25.9826 16.8 26.1146L4.33123 28.6083C4.09373 28.6611 3.89581 28.7864 3.73748 28.9844C3.57915 29.1823 3.49998 29.4 3.49998 29.6375C3.49998 29.9278 3.61873 30.1719 3.85623 30.3698C4.09373 30.5677 4.37081 30.6667 4.68748 30.6667H22.5V6.91666C22.5 6.46805 22.6517 6.09201 22.9552 5.78853C23.2587 5.48506 23.6347 5.33332 24.0833 5.33332C24.5319 5.33332 24.908 5.48506 25.2114 5.78853C25.5149 6.09201 25.6666 6.46805 25.6666 6.91666V30.6667C25.6666 31.5375 25.3566 32.283 24.7364 32.9031C24.1163 33.5233 23.3708 33.8333 22.5 33.8333H4.68748ZM6.98331 24.8875C7.35276 24.8083 7.65623 24.6236 7.89373 24.3333C8.13123 24.043 8.24998 23.7132 8.24998 23.3437V7.62916C8.24998 7.12777 8.05866 6.71874 7.67602 6.40208C7.29338 6.08541 6.85137 5.97985 6.34998 6.08541C5.98054 6.16458 5.67706 6.3493 5.43956 6.63958C5.20206 6.92985 5.08331 7.25971 5.08331 7.62916V23.3437C5.08331 23.8451 5.27463 24.2542 5.65727 24.5708C6.03991 24.8875 6.48192 24.993 6.98331 24.8875Z" fill="white"/>
</svg>
