<svg width="36" height="34" viewBox="0 0 36 34" fill="none" xmlns="http://www.w3.org/2000/svg">
<ellipse cx="18" cy="17" rx="18" ry="17" fill="#F34537"/>
<path d="M28.5 14.5625C28.5 21.125 18.7697 26.4369 18.3553 26.6562C18.2461 26.715 18.124 26.7458 18 26.7458C17.876 26.7458 17.7539 26.715 17.6447 26.6562C17.2303 26.4369 7.5 21.125 7.5 14.5625C7.50174 13.0215 8.11468 11.544 9.20436 10.4544C10.294 9.36468 11.7715 8.75174 13.3125 8.75C15.2484 8.75 16.9434 9.5825 18 10.9897C19.0566 9.5825 20.7516 8.75 22.6875 8.75C24.2285 8.75174 25.706 9.36468 26.7956 10.4544C27.8853 11.544 28.4983 13.0215 28.5 14.5625Z" fill="white"/>
</svg>
