<svg width="30" height="25" viewBox="0 0 30 25" fill="none" xmlns="http://www.w3.org/2000/svg">
<path d="M0 23C0 24.1046 0.895431 25 2 25H28C29.1046 25 30 24.1046 30 23V22.8333C30 21.7288 29.1046 20.8333 28 20.8333H2C0.89543 20.8333 0 21.7288 0 22.8333V23ZM0 12.5833C0 13.6879 0.895431 14.5833 2 14.5833H28C29.1046 14.5833 30 13.6879 30 12.5833V12.4167C30 11.3121 29.1046 10.4167 28 10.4167H2C0.89543 10.4167 0 11.3121 0 12.4167V12.5833ZM2 0C0.89543 0 0 0.89543 0 2V2.16667C0 3.27124 0.895431 4.16667 2 4.16667H28C29.1046 4.16667 30 3.27124 30 2.16667V2C30 0.895431 29.1046 0 28 0H2Z" fill="white"/>
</svg>
