<svg width="37" height="36" viewBox="0 0 37 36" fill="none" xmlns="http://www.w3.org/2000/svg">
<path d="M16.1307 3.73635C16.895 1.46678 20.105 1.46677 20.8693 3.73635L22.56 8.75723C23.3135 10.9949 25.4112 12.502 27.7724 12.502H32.9312C35.3746 12.502 36.367 15.6465 34.3663 17.0491L30.4414 19.8006C28.4446 21.2005 27.608 23.7482 28.3862 26.0594L29.9429 30.6823C30.7133 32.9699 28.1151 34.9128 26.1385 33.5272L21.6572 30.3855C19.7621 29.0569 17.2379 29.0569 15.3428 30.3855L10.8615 33.5272C8.88491 34.9128 6.28675 32.97 7.05708 30.6823L8.61377 26.0594C9.39202 23.7482 8.55544 21.2005 6.55857 19.8006L2.63368 17.0491C0.632982 15.6465 1.6254 12.502 4.06879 12.502H9.2276C11.5888 12.502 13.6865 10.9949 14.44 8.75723L16.1307 3.73635Z" fill="#FFF279" stroke="black" stroke-width="3"/>
</svg>
